<?xml version="1.0" encoding="UTF-8" standalone="no"?>
<svg viewBox="0 0 100 150" xmlns="http://www.w3.org/2000/svg">
  <defs>
    <linearGradient id="metalGradient" x1="0%" y1="0%" x2="100%" y2="100%">
      <stop offset="0%" style="stop-color:#E0E0E0; stop-opacity:1" />
      <stop offset="45%" style="stop-color:#AFAFAF; stop-opacity:1" />
      <stop offset="55%" style="stop-color:#757575; stop-opacity:1" />
      <stop offset="100%" style="stop-color:#BEBEBE; stop-opacity:1" />
    </linearGradient>
  </defs>
  
  <!-- Main paperclip shape -->
  <path d="M30,15 
           C22,15 15,22 15,30 
           L15,110 
           C15,125 27,140 45,140 
           C63,140 75,125 75,110 
           L75,40 
           C75,32 68,25 60,25 
           C52,25 45,32 45,40 
           L45,100 
           C45,105 49,110 55,110 
           C61,110 65,105 65,100 
           L65,50" 
        fill="none" 
        stroke="url(#metalGradient)" 
        stroke-width="6" 
        stroke-linecap="round" 
        stroke-linejoin="round" />
  
  <!-- Highlight on the metal -->
  <path d="M30,18 
           C24,18 18,24 18,30 
           L18,110" 
        fill="none" 
        stroke="#FFFFFF" 
        stroke-width="2" 
        stroke-linecap="round" 
        opacity="0.5" />
</svg>